<svg width="238" height="41" viewBox="0 0 238 41" fill="none" xmlns="http://www.w3.org/2000/svg">
<g clip-path="url(#clip0_332_1287)" filter="url(#filter0_d_332_1287)">
<path d="M44.9631 5.31055C45.5042 5.55146 46.0491 5.83315 46.5902 6.0926C45.3108 8.46867 44.6325 11.1219 44.6147 13.8204C44.6147 17.9901 46.5902 21.4408 46.7866 21.8522L45.115 22.6565C44.4627 21.7669 42.5762 18.4868 42.5762 13.8204C42.5762 9.08736 44.3108 6.20379 44.9631 5.31055Z" fill="white"/>
<path d="M47.98 16.2519H64.2881V17.9902H57.2237V24.6617H55.0555V17.9902H47.98V16.2519ZM55.0777 9.84722V8.69824H51.6456V6.94141H60.6336V8.69824H57.2015V9.84722C58.5061 10.9777 59.7959 12.0711 61.0895 13.2126C60.6966 13.6463 60.2852 14.0799 59.896 14.5358C58.6581 13.5833 57.3757 12.6048 56.1414 11.63C54.9035 12.6048 53.6433 13.561 52.3832 14.5173C52.0125 14.0614 51.5826 13.624 51.1897 13.1904L55.0777 9.84722Z" fill="white"/>
<path d="M67.5978 22.6563L65.9263 21.8668C66.1227 21.4554 68.0982 18.0048 68.0982 13.8351C68.0804 11.1365 67.4021 8.48332 66.1227 6.10724C66.6638 5.8478 67.2087 5.56611 67.7498 5.3252C68.4021 6.21844 70.1367 9.10201 70.1367 13.8499C70.1367 18.4866 68.2502 21.7668 67.5978 22.6563Z" fill="white"/>
<path d="M71.6787 9.82981H75.7817V7.28722H77.9314V9.82981H82.0307V11.5199H79.8847C80.23 12.0416 80.4107 12.6549 80.4035 13.2805C80.4035 15.104 79.0359 16.5124 76.8677 16.5124C74.6994 16.5124 73.3281 15.104 73.3281 13.2805C73.3234 12.6579 73.497 12.047 73.8284 11.5199H71.6787V9.82981ZM78.4058 13.2805C78.4141 13.0761 78.3801 12.8722 78.3058 12.6816C78.2315 12.491 78.1185 12.3178 77.9741 12.173C77.8296 12.0282 77.6567 11.9148 77.4663 11.8401C77.2759 11.7653 77.0721 11.7308 76.8677 11.7386C76.6636 11.7288 76.4598 11.7622 76.2695 11.8365C76.0792 11.9108 75.9067 12.0245 75.7633 12.17C75.6199 12.3155 75.5088 12.4896 75.4372 12.6809C75.3657 12.8723 75.3353 13.0766 75.348 13.2805C75.3393 13.4835 75.3725 13.6863 75.4454 13.876C75.5184 14.0657 75.6296 14.2384 75.7721 14.3834C75.9146 14.5283 76.0854 14.6424 76.2739 14.7186C76.4623 14.7947 76.6645 14.8313 76.8677 14.826C77.0715 14.8306 77.2742 14.7937 77.4634 14.7176C77.6526 14.6415 77.8243 14.5277 77.9682 14.3831C78.112 14.2386 78.225 14.0663 78.3002 13.8767C78.3755 13.6872 78.4114 13.4843 78.4058 13.2805ZM78.0352 19.952H80.1626V23.7399H87.0417V25.5005H78.0352V19.952ZM84.8512 8.22864C84.2211 7.858 83.6133 7.42436 82.998 7.05742L83.7801 5.62305C84.8438 6.14565 85.9075 6.64601 86.949 7.16491V11.6126H89.9883V13.3472H86.949V18.0543H84.866L84.8512 8.22864Z" fill="white"/>
<path d="M90.7554 16.0774H107.063V17.8157H99.9954V20.0136H103.331V25.9994H101.267V21.7667H94.1838V20.0136H97.8531V17.8157H90.7554V16.0774ZM102.89 14.4725H100.785V9.15385H94.9251V7.35254H102.89V14.4725Z" fill="white"/>
<path d="M112.227 13.1904V9.30605H114.451V13.1904L118.183 16.8967L116.867 18.1606C115.696 17.0487 114.499 15.9702 113.327 14.8842L109.551 18.2496L108.335 16.9894L112.227 13.1904ZM120.492 8.24231C119.862 7.87168 119.254 7.43803 118.639 7.07109C118.898 6.59297 119.184 6.11484 119.421 5.63672C120.485 6.15932 121.548 6.65968 122.59 7.17858V11.6522H125.629V13.3868H122.59V18.0531H120.492V8.24231Z" fill="white"/>
<path d="M128.108 9.54326H132.059V7.04144H134.209V9.55809H138.171V11.2519H136.133C136.47 11.7773 136.65 12.3882 136.652 13.0124C136.667 13.7303 136.434 14.4315 135.992 14.997C135.549 15.5625 134.925 15.9574 134.224 16.1147V18.1977H139.283V19.936H126.978V18.1829H132.059V16.0999C131.358 15.9468 130.732 15.5525 130.291 14.9857C129.85 14.4188 129.622 13.7153 129.647 12.9976C129.642 12.375 129.816 11.7641 130.147 11.2371H128.127L128.108 9.54326ZM134.643 12.9976C134.655 12.7979 134.626 12.5979 134.556 12.4103C134.487 12.2227 134.379 12.0518 134.239 11.9086C134.099 11.7653 133.931 11.653 133.745 11.5789C133.56 11.5047 133.36 11.4703 133.16 11.478C132.956 11.4653 132.752 11.4957 132.561 11.5672C132.369 11.6388 132.195 11.7499 132.05 11.8933C131.904 12.0367 131.791 12.2092 131.716 12.3994C131.642 12.5897 131.609 12.7936 131.618 12.9976C131.611 13.202 131.645 13.4059 131.72 13.5963C131.795 13.7867 131.908 13.9596 132.053 14.104C132.198 14.2485 132.371 14.3615 132.561 14.4358C132.752 14.5101 132.956 14.5441 133.16 14.5358C133.361 14.5397 133.56 14.5021 133.745 14.4254C133.931 14.3488 134.098 14.2347 134.237 14.0903C134.376 13.9459 134.484 13.7743 134.554 13.5863C134.624 13.3983 134.654 13.1979 134.643 12.9976ZM141.314 8.24232C140.707 7.87168 140.076 7.43803 139.461 7.07109L140.202 5.63672L143.394 7.17858V19.9434H141.288L141.314 8.24232Z" fill="white"/>
<path d="M157.444 23.1124C157.444 25.0879 155.773 26.4741 153.738 26.4741C151.807 26.4741 150.032 25.1287 150.032 23.2199C150.026 22.5709 150.191 21.9319 150.51 21.3667V17.8382H145.558V16.0999H161.866V17.8382H156.937V21.3518C157.262 21.8822 157.437 22.4905 157.444 23.1124ZM149.835 11.0851C149.823 10.2629 150.105 9.4635 150.631 8.83085C151.156 8.19821 151.89 7.77394 152.7 7.63448V5.96289H154.739V7.65671C155.541 7.80028 156.267 8.22333 156.787 8.85088C157.308 9.47843 157.589 10.2699 157.582 11.0851C157.582 13.0829 156.099 14.647 153.72 14.647C151.34 14.647 149.835 13.0829 149.835 11.0851ZM151.766 11.0851C151.766 11.6032 151.972 12.1 152.338 12.4663C152.705 12.8326 153.202 13.0384 153.72 13.0384C154.238 13.0384 154.734 12.8326 155.101 12.4663C155.467 12.1 155.673 11.6032 155.673 11.0851C155.673 10.5671 155.467 10.0703 155.101 9.70396C154.734 9.33765 154.238 9.13186 153.72 9.13186C153.202 9.13186 152.705 9.33765 152.338 9.70396C151.972 10.0703 151.766 10.5671 151.766 11.0851ZM153.697 21.615C153.489 21.6055 153.28 21.6382 153.084 21.711C152.888 21.7838 152.709 21.8953 152.557 22.0389C152.406 22.1824 152.284 22.355 152.201 22.5465C152.117 22.7379 152.073 22.9442 152.07 23.1532C152.07 24.1539 152.741 24.784 153.805 24.784C154.018 24.7841 154.229 24.7413 154.425 24.6583C154.621 24.5752 154.798 24.4535 154.946 24.3005C155.094 24.1474 155.21 23.9662 155.286 23.7674C155.363 23.5687 155.398 23.3567 155.391 23.1439C155.384 22.9311 155.334 22.7219 155.244 22.5288C155.154 22.3357 155.027 22.1627 154.869 22.0201C154.711 21.8774 154.525 21.768 154.324 21.6984C154.123 21.6288 153.91 21.6005 153.697 21.615ZM152.415 20.1324C152.825 19.9483 153.271 19.8596 153.72 19.873C154.152 19.8745 154.579 19.9628 154.976 20.1324V17.8345H152.415V20.1324Z" fill="white"/>
<path d="M163.29 9.82865H167.393V7.28606H169.542V9.82865H173.642V11.5188H171.496C171.841 12.0404 172.022 12.6537 172.014 13.2793C172.014 15.1029 170.647 16.5113 168.478 16.5113C166.31 16.5113 164.939 15.1029 164.939 13.2793C164.934 12.6567 165.108 12.0458 165.439 11.5188H163.29V9.82865ZM170.017 13.2793C170.025 13.0749 169.991 12.871 169.917 12.6804C169.842 12.4898 169.729 12.3167 169.585 12.1719C169.44 12.027 169.268 11.9137 169.077 11.8389C168.887 11.7642 168.683 11.7296 168.478 11.7374C168.274 11.7277 168.071 11.761 167.88 11.8354C167.69 11.9097 167.518 12.0233 167.374 12.1688C167.231 12.3143 167.12 12.4884 167.048 12.6798C166.977 12.8711 166.946 13.0754 166.959 13.2793C166.951 13.4821 166.984 13.6844 167.057 13.8737C167.131 14.063 167.242 14.2352 167.384 14.3798C167.527 14.5243 167.697 14.6381 167.886 14.714C168.074 14.7899 168.276 14.8264 168.478 14.8212C168.682 14.8257 168.884 14.789 169.073 14.7131C169.262 14.6371 169.434 14.5237 169.578 14.3795C169.721 14.2354 169.835 14.0635 169.91 13.8744C169.985 13.6853 170.022 13.4829 170.017 13.2793ZM170.191 21.8967L168.975 20.9627C169.279 20.529 169.605 20.0954 169.887 19.658C170.647 20.1361 171.429 20.5698 172.189 21.0479V22.5305H176.488V21.1257L175.272 20.1695L176.162 18.9019C176.944 19.38 177.722 19.8137 178.482 20.2918V27.5823H170.191V21.8967ZM176.492 25.8885V24.1316H172.192V25.8885H176.492ZM176.469 8.24232C175.839 7.87168 175.232 7.43803 174.616 7.07109L175.398 5.63672C176.462 6.15932 177.526 6.65968 178.567 7.17858V11.6263H181.607V13.3608H178.567V18.0531H176.484L176.469 8.24232Z" fill="white"/>
<path d="M188.226 10.5885C189.037 10.7362 189.769 11.1659 190.293 11.8014C190.817 12.437 191.1 13.2375 191.091 14.0614C191.091 16.0554 189.608 17.6417 187.162 17.6417C184.716 17.6417 183.256 16.0554 183.256 14.0614C183.244 13.2367 183.525 12.4347 184.05 11.7985C184.575 11.1623 185.309 10.7334 186.121 10.5885V8.91688H188.226V10.5885ZM189.097 14.0614C189.108 13.8019 189.067 13.5428 188.976 13.2997C188.884 13.0566 188.745 12.8346 188.565 12.6469C188.385 12.4593 188.17 12.3099 187.931 12.2079C187.692 12.1059 187.435 12.0533 187.175 12.0533C186.916 12.0533 186.658 12.1059 186.42 12.2079C186.181 12.3099 185.965 12.4593 185.786 12.6469C185.606 12.8346 185.466 13.0566 185.375 13.2997C185.283 13.5428 185.242 13.8019 185.253 14.0614C185.275 14.5564 185.487 15.024 185.845 15.3667C186.203 15.7093 186.68 15.9006 187.175 15.9006C187.671 15.9006 188.147 15.7093 188.505 15.3667C188.863 15.024 189.075 14.5564 189.097 14.0614ZM189.249 19.9656H191.395V23.7388H198.255V25.4993H189.249V19.9656ZM196.043 16.2296H192.548V14.558H196.043V12.627H192.548V10.9554H196.043V8.24231C195.413 7.87168 194.805 7.43803 194.19 7.07109C194.427 6.59297 194.708 6.11484 194.972 5.63672C196.013 6.15932 197.077 6.65968 198.141 7.17858V18.0531H196.058L196.043 16.2296Z" fill="white"/>
<path d="M200.294 16.2516H216.602V17.9899H209.519V24.6614H207.392V17.9899H200.294V16.2516ZM212.429 14.4725H210.32V9.15385H204.46V7.35254H212.429V14.4725Z" fill="white"/>
<path d="M217.677 16.2748H224.775V13.5618H226.925V16.2748H234V18.0094H217.692L217.677 16.2748ZM224.775 8.98066V6.26758H226.925V8.98066L231.287 12.7575L230.09 14.0844L225.857 10.7857L221.606 14.0844C221.195 13.6507 220.805 13.2171 220.413 12.7612L224.775 8.98066Z" fill="white"/>
<path d="M18.87 6.75234C17.9377 6.49797 16.9509 6.52584 16.0344 6.83244C15.1179 7.13905 14.313 7.71059 13.7214 8.47477C13.1299 9.23895 12.7782 10.1614 12.711 11.1255C12.6439 12.0896 12.8641 13.0519 13.344 13.8907C13.8238 14.7296 14.5417 15.4073 15.4068 15.838C16.2719 16.2688 17.2453 16.4333 18.2039 16.3107C19.1625 16.1881 20.0632 15.7839 20.7921 15.1493C21.5209 14.5147 22.0451 13.6782 22.2985 12.7456C22.6378 11.4962 22.4673 10.1632 21.8245 9.03948C21.1817 7.91572 20.119 7.0931 18.87 6.75234Z" fill="#2CA6E0"/>
<path d="M26.7761 23.7213C28.7257 20.4634 31.057 17.4834 29.1668 13.4805C28.8407 13.6941 28.6086 14.0243 28.5181 14.4034C27.2666 17.3125 25.4398 19.9386 23.1476 22.1238C21.539 23.6916 20.1454 25.4077 19.7377 27.7279C19.4868 29.0736 19.4655 30.4521 19.6747 31.8049C19.7245 32.1246 19.8904 32.4148 20.1407 32.6199C20.3909 32.825 20.708 32.9307 21.0312 32.9168C30.9681 32.3683 38.3586 22.9578 36.4276 13.1247C35.8197 10.0373 34.2556 7.41313 32.1467 5.04475C31.8724 4.74082 31.6204 4.41466 31.3609 4.09591C30.9421 3.58072 30.6197 3.72527 30.4492 4.29235C30.3183 4.75815 30.2877 5.24638 30.3592 5.72488C30.4308 6.20338 30.6029 6.66129 30.8643 7.06844C31.6426 8.47316 32.6952 9.72222 33.2253 11.2752C35.0785 16.7162 33.2253 20.9341 27.9585 23.2543C27.636 23.3951 27.2987 23.5137 26.7761 23.7213Z" fill="#315085"/>
<path d="M28.7621 3.8877C29.0043 4.65949 29.2965 5.41472 29.6368 6.1486C30.0519 6.95659 35.7597 13.4613 31.5938 18.8986C32.1478 17.3509 32.1583 15.6607 31.6234 14.1062C30.7302 11.445 27.9726 6.65637 27.917 6.3228C27.8614 5.98922 27.6131 4.48072 28.7621 3.8877Z" fill="#315085"/>
<path d="M18.084 30.1141C18.084 30.0845 18.084 30.0511 18.0654 30.0215L18.084 30.1141Z" fill="#2CA6E0"/>
<path d="M4.17468 14.5481C5.45339 5.99739 13.3035 -0.811256 21.8986 0.0782792C25.1936 0.419268 24.8267 2.90255 21.0573 3.72908C2.27701 7.84689 15.4273 22.9801 21.7912 15.8156C27.3507 9.54071 30.7347 12.2946 21.7912 21.4975C20.8103 22.5315 19.985 23.7026 19.3412 24.9741C18.7484 26.209 18.3926 27.5442 18.2923 28.9103C18.2499 29.8368 18.3183 30.7651 18.4962 31.6753C18.5369 31.8977 18.6815 32.6241 17.703 32.4833C9.14866 31.2713 2.85521 23.3915 4.17468 14.5481Z" fill="#2CA6E0"/>
</g>
<defs>
<filter id="filter0_d_332_1287" x="0" y="0" width="238" height="40.8984" filterUnits="userSpaceOnUse" color-interpolation-filters="sRGB">
<feFlood flood-opacity="0" result="BackgroundImageFix"/>
<feColorMatrix in="SourceAlpha" type="matrix" values="0 0 0 0 0 0 0 0 0 0 0 0 0 0 0 0 0 0 127 0" result="hardAlpha"/>
<feOffset dy="4"/>
<feGaussianBlur stdDeviation="2"/>
<feComposite in2="hardAlpha" operator="out"/>
<feColorMatrix type="matrix" values="0 0 0 0 0 0 0 0 0 0 0 0 0 0 0 0 0 0 0.25 0"/>
<feBlend mode="normal" in2="BackgroundImageFix" result="effect1_dropShadow_332_1287"/>
<feBlend mode="normal" in="SourceGraphic" in2="effect1_dropShadow_332_1287" result="shape"/>
</filter>
<clipPath id="clip0_332_1287">
<rect width="230" height="32.898" fill="white" transform="translate(4)"/>
</clipPath>
</defs>
</svg>
